<?xml version="1.0" encoding="utf-8"?>
<svg viewBox="0 0 325 420" xmlns="http://www.w3.org/2000/svg" xmlns:xlink="http://www.w3.org/1999/xlink">
  <defs>
    <marker id="arrow-start" markerWidth="7" markerHeight="6" viewBox="0 -3 6 6" orient="auto">
      <path d="M0-2L5 0 0 2 5 0 0 0 5 0 0-2" stroke="#000" />
    </marker>
    <marker id="marker02" markerWidth="7" markerHeight="6" viewBox="-5 -3 6 6" orient="auto">
      <path d="M0-2L-5 0 0 2-5 0 0 0-5 0 0-2" stroke="#000" />
    </marker>
  </defs>
  <rect x="210" y="0" width="120" height="420" fill="#eee" stroke="none" />
  <g style="stroke:#000; fill:none">
    <rect x="1" y="61" width="80" height="40" rx="5" />
    <rect x="1" y="121" width="80" height="40" rx="5" />
    <rect x="1" y="181" width="80" height="40" rx="5" />
    <rect x="1" y="241" width="80" height="40" rx="5" />
    <rect x="111" y="61" width="80" height="40" rx="5" stroke-dasharray="2" />
    <rect x="111" y="277" width="80" height="40" rx="5" />
    <rect x="111" y="337" width="80" height="40" rx="5" />
    <rect x="1" y="373" width="80" height="40" rx="5" />

    <path d="M40 101v13" marker-end="url(#arrow-start)" />
    <path d="M40 161v13" marker-end="url(#arrow-start)" />
    <path d="M40 221v13" marker-end="url(#arrow-start)" />
    <path d="M81 260h10a5 5 0 0 0 5-5v-170a5 5 0 0 1 5-5h5" marker-end="url(#arrow-start)" />
    <path d="M151 101v170" marker-end="url(#arrow-start)" />
    <path d="M151 318v13" marker-end="url(#arrow-start)" />
    <path d="M111 356h-65a5 5 0 0 0-5 5v5" marker-end="url(#arrow-start)" />

    <rect x="230" y="61" width="80" height="40" rx="5" />
    <path d="M270 101v73" marker-end="url(#arrow-start)" />
    <rect x="230" y="181" width="80" height="40" rx="5" />
    <path d="M270 220v50" marker-end="url(#arrow-start)" />
    <rect x="230" y="277" width="80" height="40" rx="5" />
    <path d="M270 317v50" marker-end="url(#arrow-start)" />
    <rect x="230" y="373" width="80" height="40" rx="5" />

    <path d="M210 0V420" style="stroke:#aaa; stroke-dasharray:2" />
  </g>
  <g style="font-size:16; text-anchor:middle; dominant-baseline: middle;">
    <text x="40" y="22" fill="green">master</text>
    <text x="150" y="22" fill="green">develop</text>
    <text x="270" y="22" fill="green">master</text>
    <text x="40" y="82">commit</text>
    <text x="40" y="137">branch<tspan x="40" dy="1.2em" style="font-size:.7em">develop</tspan></text>
    <text x="40" y="202">commit</text>
    <text x="40" y="257">switch<tspan x="40" dy="1.2em" style="font-size:.7em">develop</tspan></text>
    <text x="150" y="297">commit</text>
    <text x="150" y="353">switch<tspan x="150" dy="1.2em" style="font-size:.7em">master</tspan></text>
    <text x="40" y="388">marge<tspan x="40" dy="1.2em" style="font-size:.7em">develop</tspan></text>

    <text x="270" y="82">commit</text>
    <text x="270" y="202">commit</text>
    <text x="270" y="297">commit</text>
    <text x="270" y="392">commit</text>
  </g>
  <g style="font-size:10; text-anchor:left; dominant-baseline: middle; fill:red;">
    <text x="60" y="367">HEAD</text>
    <text x="165" y="271">HEAD</text>
    <text x="280" y="271" fill="green">* develop</text>
    <text x="280" y="367">HEAD</text>
  </g>
</svg>