<?xml version="1.0" encoding="utf-8"?>
<svg viewBox="0 0 370 100" xmlns="http://www.w3.org/2000/svg" xmlns:xlink="http://www.w3.org/1999/xlink">
  <g style="stroke:#444">
    <rect x="15" y="70" width="30" height="20" style="fill:#FDD"/>

    <rect x="75" y="70" width="30" height="20" style="fill:#FDD"/>
    <rect x="75" y="50" width="30" height="20" style="fill:#DFD"/>

    <rect x="135" y="70" width="30" height="20" style="fill:#FDD"/>
    <rect x="135" y="50" width="30" height="20" style="fill:#DFD"/>
    <rect x="135" y="30" width="30" height="20" style="fill:#DDF"/>

    <rect x="195" y="70" width="30" height="20" style="fill:#FDD"/>
    <rect x="195" y="50" width="30" height="20" style="fill:#DFD"/>

    <rect x="255" y="70" width="30" height="20" style="fill:#DFD"/>

    <rect x="315" y="89" width="30" height="1" style="fill:#DFD"/>
  </g>
  <g style="font-size:10px; text-anchor:middle; dominant-baseline:middle">
    <text x="30" y="60">git stash</text>
    <text x="30" y="80">0</text>
    <text x="90" y="40">git stash push</text>
    <text x="90" y="80">1</text>
    <text x="90" y="60">0</text>
    <text x="150" y="20">git stash push -m "save1" file.cpp</text>
    <text x="150" y="80">2</text>
    <text x="150" y="60">1</text>
    <text x="150" y="40">0</text>
    <text x="210" y="40">git stash pop</text>
    <text x="210" y="80">1</text>
    <text x="210" y="60">0</text>
    <text x="270" y="60">git stash drop 1</text>
    <text x="270" y="80">0</text>
    <text x="330" y="80">git stash pop</text>
  </g>
</svg>