<?xml version="1.0" encoding="utf-8"?>
<svg viewBox="5 25 200 350" xmlns="http://www.w3.org/2000/svg" xmlns:xlink="http://www.w3.org/1999/xlink">
  <defs>
    <marker id="arrow-start" markerWidth="7" markerHeight="6" viewBox="0 -3 6 6" orient="auto">
      <path d="M0-2L5 0 0 2 5 0 0 0 5 0 0-2" stroke="#000" />
    </marker>
    <marker id="marker02" markerWidth="7" markerHeight="6" viewBox="-5 -3 6 6" orient="auto">
      <path d="M0-2L-5 0 0 2-5 0 0 0-5 0 0-2" stroke="#000" />
    </marker>
  </defs>
  <g style="stroke:#000; fill:none">
    <rect x="10" y="30" width="80" height="40" />
    <rect x="10" y="90" width="80" height="40" />
    <rect x="10" y="150" width="80" height="40" />
    <rect x="10" y="210" width="80" height="40" />
    <rect x="10" y="270" width="80" height="40" />
    <rect x="10" y="330" width="80" height="40" />
    <rect x="120" y="150" width="80" height="40" />
    <rect x="120" y="270" width="80" height="40" />
    <path d="M50 70v13" marker-end="url(#arrow-start)" />
    <path d="M50 130v13" marker-end="url(#arrow-start)" />
    <path d="M50 190v13" marker-end="url(#arrow-start)" />
    <path d="M50 250v13" marker-end="url(#arrow-start)" />
    <path d="M50 310v13" marker-end="url(#arrow-start)" />
    <path d="M90 170h23" marker-end="url(#arrow-start)"/>
    <path d="M160 190v40h-63" marker-end="url(#arrow-start)"/>
    <path d="M90 290h23" marker-end="url(#arrow-start)"/>
    <path d="M160 310v40h-63" marker-end="url(#arrow-start)"/>
  </g>
  <g style="font-size:9; text-anchor:middle; dominant-baseline: middle;">
    <text x="50" y="50">프로젝트 공고</text>
    <text x="50" y="110">초안 제출 기한</text>
    <text x="50" y="170">중간 발표</text>
    <text x="50" y="230">최종 발표(1차)</text>
    <text x="50" y="290">최종 발표 (2차)</text>
    <text x="50" y="350">심사 발표</text>
    <text x="160" y="170">보안 요구사항</text>
    <text x="160" y="290">보안 요구사항</text>
  </g>
</svg>