<?xml version="1.0" encoding="utf-8"?>
<svg viewBox="0 0 500 300" xmlns="http://www.w3.org/2000/svg" xmlns:xlink="http://www.w3.org/1999/xlink">
  <defs>
    <symbol id="key" viewBox="0 -960 960 960">
      <path
        d="M280-400q-33 0-56.5-23.5T200-480q0-33 23.5-56.5T280-560q33 0 56.5 23.5T360-480q0 33-23.5 56.5T280-400Zm0 160q-100 0-170-70T40-480q0-100 70-170t170-70q67 0 121.5 33t86.5 87h352l120 120-180 180-80-60-80 60-85-60h-47q-32 54-86.5 87T280-240Zm0-80q56 0 98.5-34t56.5-86h125l58 41 82-61 71 55 75-75-40-40H435q-14-52-56.5-86T280-640q-66 0-113 47t-47 113q0 66 47 113t113 47Z"
        style="fill:#000; stroke:#000" />
    </symbol>
    <symbol id="document" viewBox="0 -960 960 960">
      <path
        d="M280-280h280v-80H280v80Zm0-160h400v-80H280v80Zm0-160h400v-80H280v80Zm-80 480q-33 0-56.5-23.5T120-200v-560q0-33 23.5-56.5T200-840h560q33 0 56.5 23.5T840-760v560q0 33-23.5 56.5T760-120H200Zm0-80h560v-560H200v560Zm0-560v560-560Z" />
    </symbol>
    <symbol id="lock" viewBox="0 -960 960 960">
      <path
        d="M240-80q-33 0-56.5-23.5T160-160v-400q0-33 23.5-56.5T240-640h40v-80q0-83 58.5-141.5T480-920q83 0 141.5 58.5T680-720v80h40q33 0 56.5 23.5T800-560v400q0 33-23.5 56.5T720-80H240Zm0-80h480v-400H240v400Zm240-120q33 0 56.5-23.5T560-360q0-33-23.5-56.5T480-440q-33 0-56.5 23.5T400-360q0 33 23.5 56.5T480-280ZM360-640h240v-80q0-50-35-85t-85-35q-50 0-85 35t-35 85v80ZM240-160v-400 400Z" />
    </symbol>
    <marker id="marker01" markerWidth="7" markerHeight="6" viewBox="0 -3 6 6" orient="auto">
      <path d="M0 -2L5 0 0 2 5 0 -1 0 5 0 0-2" stroke="#000" />
    </marker>
  </defs>

  <use width="100" height="100" transform="matrix(1, 0, 0, 1, 200, 15)" xlink:href="#key" />
  <use width="100" height="100" transform="matrix(1, 0, 0, 1, 0, 100)" xlink:href="#document" />
  <use width="100" height="100" transform="matrix(1, 0, 0, 1, 400, 100)" xlink:href="#lock" />
  <use width="100" height="100" transform="matrix(1, 0, 0, 1, 200, 215)" xlink:href="#key" />
  <g style="stroke:#000; fill:none; stroke-width:5px;" >
    <path d="M110 130 Q250 80 370 125" marker-end="url(#marker01)"/>
    <path d="M400 180 Q250 220 130 180" marker-end="url(#marker01)"/>
  </g>
  <g style="text-anchor:middle; dominant-baseline: middle;">
    <text x="250" y="25">private</text>
    <text x="250" y="225">public</text>
  </g>
</svg>