<?xml version="1.0" encoding="utf-8"?>
<svg viewBox="0 0 500 300" xmlns="http://www.w3.org/2000/svg" xmlns:xlink="http://www.w3.org/1999/xlink"
  id="affix-about-WAS">
  <defs>
    <marker id="ah1" markerWidth="20" markerHeight="20" viewBox="0 0 20 10" orient="auto">
      <path d="M9 0L0 4 0 -4 9 0z" style="fill:green" />
    </marker>
    <marker id="ah2" markerWidth="20" markerHeight="20" viewBox="0 0 20 10" orient="auto">
      <path d="M9 0L0 4 0 -4 9 0z" style="fill:red" />
    </marker>
    <symbol id="database" viewBox="0 -960 960 960" fill="#666">
      <path
        d="M480-120q-151 0-255.5-46.5T120-280v-400q0-66 105.5-113T480-840q149 0 254.5 47T840-680v400q0 67-104.5 113.5T480-120Zm0-485q87 0 177.33-26.17 90.34-26.16 111.34-57.83-21.67-31-111.84-57.67-90.16-26.66-176.83-26.66-89 0-177.5 25.83T190.67-689q23.33 33.33 111.16 58.67Q389.67-605 480-605Zm-.67 209q42 0 83-4.33 41-4.34 78.5-12.84T712.17-434q33.83-12.33 61.16-27.67V-605q-28 15.33-61.83 27.67-33.83 12.33-71.67 20.83-37.83 8.5-78.16 13.17-40.34 4.66-82.34 4.66T396-543.33q-41.33-4.67-78.83-13.17t-70.84-20.83Q213-589.67 186.67-605v143.33Q213-446.33 246-434q33 12.33 70.5 20.83 37.5 8.5 78.83 12.84 41.34 4.33 84 4.33Zm.67 209.33q47.33 0 97.17-8 49.83-8 91.5-21.16Q710.33-229 739-245.17q28.67-16.16 34.33-33.16v-116Q746-379 712.17-367q-33.84 12-71.34 20.5t-78.16 12.83q-40.67 4.34-83.34 4.34-42.66 0-84-4.34Q354-338 316.5-346.5T246-367q-33-12-59.33-27.33v117q5 16.33 33.16 32.66Q248-228.33 290-215.5q42 12.83 92 20.83 50 8 98 8Z" />
    </symbol>
    <symbol id="rule-setting" viewBox="0 -960 960 960" fill="#666">
      <path
        d="M128-160v-66.67h118.67l-14.67-14q-57.33-55.33-82-116-24.67-60.66-24.67-120 0-109.66 63.84-195.83Q253-758.67 356.67-790v69.33Q282-692 237-625.17q-45 66.84-45 148.5 0 49.67 17.33 94.84 17.34 45.16 57.34 82.5L290-278v-110.67h66.67V-160H128Zm705-342.67h-67q-3-45.66-20.5-85.33t-52.17-72.67L670-682v110.67h-66.67V-800H832v66.67H712.67l15.33 14q52.33 50.66 77 106.33t28 110.33ZM690.67-40l-7.34-52Q666-97.67 648.5-107.17t-29.83-21.5l-47.34 19.34L534.67-168l40.66-33.33q-4-20-4-36.34 0-16.33 4-36.33l-40.66-33.33 36.66-59.34 47.34 19.34Q631-358 648.5-367.83q17.5-9.84 34.83-15.5l7.34-52.67h66.66l8 52.67q17.34 5.66 34.84 15.66 17.5 10 29.83 21l47.33-20 36.67 60-40.67 33.34q4 19.33 4 36 0 16.66-4 36L914-168l-36.67 58.67L830-128.67q-12.33 12-29.83 21.5T765.33-92l-8 52h-66.66ZM724-143.33q40.33 0 67.5-27.17t27.17-67.5q0-40.33-27.17-67.5T724-332.67q-40.33 0-67.5 27.17T629.33-238q0 40.33 27.17 67.5t67.5 27.17Z" />
    </symbol>
    <symbol id="person" viewBox="0 -960 960 960" fill="#666">
      <path
        d="M480-480.67q-66 0-109.67-43.66Q326.67-568 326.67-634t43.66-109.67Q414-787.33 480-787.33t109.67 43.66Q633.33-700 633.33-634t-43.66 109.67Q546-480.67 480-480.67ZM160-160v-100q0-36.67 18.5-64.17T226.67-366q65.33-30.33 127.66-45.5 62.34-15.17 125.67-15.17t125.33 15.5q62 15.5 127.28 45.3 30.54 14.42 48.96 41.81Q800-296.67 800-260v100H160Zm66.67-66.67h506.66V-260q0-14.33-8.16-27-8.17-12.67-20.5-19-60.67-29.67-114.34-41.83Q536.67-360 480-360t-111 12.17Q314.67-335.67 254.67-306q-12.34 6.33-20.17 19-7.83 12.67-7.83 27v33.33ZM480-547.33q37 0 61.83-24.84Q566.67-597 566.67-634t-24.84-61.83Q517-720.67 480-720.67t-61.83 24.84Q393.33-671 393.33-634t24.84 61.83Q443-547.33 480-547.33Zm0-86.67Zm0 407.33Z" />
    </symbol>
    <symbol id="host" viewBox="0 -960 960 960" fill="#666">
      <path
        d="M146.67-120q-27 0-46.84-19.83Q80-159.67 80-186.67v-586.66q0-27 19.83-46.84Q119.67-840 146.67-840h226.66q27 0 46.84 19.83Q440-800.33 440-773.33v586.66q0 27-19.83 46.84Q400.33-120 373.33-120H146.67Zm440 0q-27 0-46.84-19.83Q520-159.67 520-186.67v-586.66q0-27 19.83-46.84Q559.67-840 586.67-840h226.66q27 0 46.84 19.83Q880-800.33 880-773.33v586.66q0 27-19.83 46.84Q840.33-120 813.33-120H586.67Zm-440-66.67h226.66v-586.66H146.67v586.66Zm440 0h226.66v-586.66H586.67v586.66ZM200-364.67h120v-66.66H200v66.66Zm440 0h120v-66.66H640v66.66ZM200-487.33h120V-554H200v66.67Zm440 0h120V-554H640v66.67ZM200-610h120v-66.67H200V-610Zm440 0h120v-66.67H640V-610ZM146.67-186.67h226.66-226.66Zm440 0h226.66-226.66Z" />
    </symbol>
  </defs>
  <use width="40" height="40" x="8" y="185" xlink:href="#person" />
  <use width="40" height="40" x="240" y="185" xlink:href="#host" />
  <use width="40" height="40" x="245" y="68" xlink:href="#rule-setting" />
  <use width="40" height="40" x="410" y="55" xlink:href="#database" />
  <g style="fill:none; stroke:black;stroke-dasharray:5 3;stroke-dashoffset:0">
    <path marker-end="url(#ah2)" d="M 57 241 h160 a10 10 0 0 1 0 20 h -152" style="stroke:red" />
    <path marker-end="url(#ah1)"
      d="M 57 190 h160 a10 10 0 0 0 8.66 -5 l30 -51.96 a10 10 0 0 0 -17.32 -10 l-24.22 41.96 a10 10 0 0 1 -8.66 5 h -140"
      style="stroke:green" />
    <path marker-end="url(#ah1)" d="M 298 100 h90 a10 10 0 0 0 0 -20 h -82" style="stroke:green" />
    <animate attributeName="stroke-dashoffset" values="0;-8" dur="1s" repeatCount="indefinite" />
  </g>
  <g style="fill:#444;font-size:17px">
    <text x="7" y="240">Client</text>
    <text x="255" y="242">Web Server</text>
    <text x="190" y="63">interpreter</text>
    <text x="405" y="115">DB Server</text>
  </g>
  <g style="fill:blue;font-size:15px">
    <text x="235" y="270">.html</text>
    <text x="250" y="165">.php .asp .jsp</text>
    <text x="312" y="68">SQL Query</text>
  </g>
</svg>