<?xml version="1.0" encoding="utf-8"?>
<svg viewBox="0 20 250 360" xmlns="http://www.w3.org/2000/svg" xmlns:xlink="http://www.w3.org/1999/xlink">
  <defs>
    <marker id="arrow-start" markerWidth="7" markerHeight="6" viewBox="0 -3 6 6" orient="auto">
      <path d="M0-2L5 0 0 2 5 0 0 0 5 0 0-2" stroke="#000" />
    </marker>
    <marker id="marker02" markerWidth="7" markerHeight="6" viewBox="-5 -3 6 6" orient="auto">
      <path d="M0-2L-5 0 0 2-5 0 0 0-5 0 0-2" stroke="#000" />
    </marker>
  </defs>
  <g style="stroke:#000; fill:none">
    <rect x="10" y="30" width="80" height="40" rx="5" />
    <rect x="10" y="90" width="80" height="40" rx="5" />
    <rect x="10" y="150" width="80" height="40" rx="5" stroke-dasharray="2" />
    <rect x="10" y="210" width="80" height="40" rx="5" />
    <rect x="10" y="270" width="80" height="40" rx="5" style="fill:#F88" />
    <rect x="10" y="330" width="80" height="40" rx="5" stroke-dasharray="2" />
    <path d="M50 70v13" marker-end="url(#arrow-start)" />
    <path d="M50 130v13" marker-end="url(#arrow-start)" />
    <path d="M50 190v13" marker-end="url(#arrow-start)" />
    <path d="M50 250v13" marker-end="url(#arrow-start)" />
    <path d="M50 310v13" marker-end="url(#arrow-start)" />
    <path d="M90 350h40a5 5 0 0 0 5-5v-230a5 5 0 0 0-5-5h-33" marker-end="url(#arrow-start)" />

    <path d="M180 65v33" marker-end="url(#arrow-start)" />
    <path d="M180 115v33" marker-end="url(#arrow-start)" />
    <path d="M180 165v33" marker-end="url(#arrow-start)" />
    <path d="M180 215v33" marker-end="url(#arrow-start)" />
  </g>
  <g style="stroke:#000; fill:#F88">
    <ellipse rx="5" ry="5" cx="180" cy="60" />
    <ellipse rx="5" ry="5" cx="180" cy="110" />
    <ellipse rx="5" ry="5" cx="180" cy="160" />
    <ellipse rx="5" ry="5" cx="180" cy="210" />
    <ellipse rx="5" ry="5" cx="180" cy="260" />
  </g>
  <g style="font-size:8; text-anchor:middle; dominant-baseline: middle;">
    <text x="50" y="47">작업 폴더 초기화<tspan x="50" dy="10">init</tspan></text>
    <text x="50" y="111">(작업)</text>
    <text transform="translate(142,225), rotate(90)">(반복)</text>
    <text x="50" y="167">변경 내역 확인<tspan x="50" dy="10">status</tspan></text>
    <text x="50" y="227">반영 파일 지정<tspan x="50" dy="10">add</tspan></text>
    <text x="50" y="287">변경 내역 반영<tspan x="50" dy="10">commit</tspan></text>
    <text x="50" y="347">변경 내용 확인<tspan x="50" dy="10">status</tspan></text>
    <text x="180" y="40" style="font-size:15">git log</text>
    <text x="215" y="65">"이런 내용 반영"</text>
    <text x="215" y="115">"저런 내용 반영"</text>
    <text x="215" y="165">"그런 내용 반영"</text>
    <text x="215" y="215">"어떤 내용 반영"</text>
    <text x="215" y="265">"저떤 내용 반영"</text>
  </g>
</svg>