<?xml version="1.0" encoding="utf-8"?>
<svg viewBox="0 0 185 85" xmlns="http://www.w3.org/2000/svg" xmlns:xlink="http://www.w3.org/1999/xlink">
  <defs>
    <marker id="arrow-end" markerWidth="7" markerHeight="6" viewBox="0 -3 6 6" orient="auto">
      <path d="M0-2L5 0 0 2 5 0 0 0 5 0 0-2" stroke="#808" />
    </marker>
  </defs>
  <g style="stroke:#000; fill:none">
    <rect x="1" y="1" rx="2" width="10" height="10" />
    <path d="M6 11v5a4 4 1 0 0 4 4h10" />
    <rect x="20" y="15" rx="2" width="10" height="10" stroke-dasharray="1" />
    <path d="M6 16v15a4 4 1 0 0 4 4h10" />
    <rect x="20" y="30" rx="2" width="10" height="10" stroke-dasharray="1" />
    <path d="M6 31v15a4 4 1 0 0 4 4h10" />
    <rect x="20" y="45" rx="2" width="10" height="10" />
    <path d="M6 46v15a4 4 1 0 0 4 4h12" />
    <ellipse cx="25" cy="65" rx="3" ry="3" fill="black" />
    <path d="M6 61v15a4 4 1 0 0 4 4h12" />
    <ellipse cx="25" cy="80" rx="3" ry="3" fill="black" />
    <path d="M56 20a7 7 1 0 1 0 15" marker-end="url(#arrow-end)" stroke="#808"/>
    <path d="M56 20a15 15 1 0 1 0 30" marker-end="url(#arrow-end)" stroke="#808"/>

    <rect x="110" y="1" rx="2" width="10" height="10" />
    <path d="M116 11v35a4 4 1 0 0 4 4h10" />
    <rect x="130" y="45" rx="2" width="10" height="10" />
    <path d="M116 46v15a4 4 1 0 0 4 4h12" />
    <ellipse cx="135" cy="65" rx="3" ry="3" fill="black" />
    <path d="M116 61v15a4 4 1 0 0 4 4h12" />
    <ellipse cx="135" cy="80" rx="3" ry="3" fill="black" />
    <path d="M56 20h20a15 15 1 0 1 15 15a15 15 0 0 0 15 15" marker-end="url(#arrow-end)" stroke="#808"/>
  </g>
  <g style="font-size:8; dominant-baseline: middle;">
    <text x="32" y="20">origin</text>
    <text x="32" y="35">local</text>
    <text x="32" y="50">sub</text>
    <text x="30" y="65">.gitignore</text>
    <text x="30" y="80">.gitmodules</text>
    <text x="122" y="8">clone</text>
    <text x="142" y="50">sub</text>
    <text x="140" y="65">.gitignore</text>
    <text x="140" y="80">.gitmodules</text>
  </g>
</svg>