<?xml version="1.0" encoding="utf-8"?>
<svg viewBox="0 0 500 300" xmlns="http://www.w3.org/2000/svg">
  <g style="fill: rgb(216, 216, 216); stroke: rgb(0, 0, 0);">
    <path
      d="M 31 228 C 30 228 29 228 28 227 C 27 226 26 226 26 225 C 24 225 23 224 22 223 C 21 222 20.746 221 20.746 219 L 20.746 209 C 18 208 15 205 14 202 C 12 200.005 11 196 11 193 C 11 187 13 183 17 179 C 21 175 26 173 31 173 C 37 173 41 175 45 179 C 49 183 51 187 51 193 C 51 196 50.717 200.119 49 202 C 47 205 45 208 42 209 L 42 219 C 42 221 42 222 41 223 C 39 224 38 225 37 225 C 36 226 35 226 34 227 C 33 228 32 228 31 228 Z M 26 219 L 37 219 L 37 217 L 26 217 L 26 219 Z M 26 214 L 37 214 L 37 211 L 26 211 L 26 214 Z M 25 206 L 29 206 L 29 199 L 23 193 L 26 190.132 L 31 195 L 36 190.132 L 39 193 L 33 199 L 33 206 L 37 206 C 40.172 205 42 203 43 201 C 45 198 46 196 46 193 C 46 189 44 186 41 183 C 39 180.442 35 179 31 179 C 27 179 24 180.442 21 183 C 18 186 17 189 17 193 C 17 196 18 198 19 201 C 21 203 23 205 25 206 Z M 31 195 Z M 31 192 Z" />
    <path
      d="M 63 195 L 98 195 L 93 190 L 113 200 L 93 210 L 98 205 L 63 205 L 63 195 Z" />
    <path
      d="M 214 195 L 249 195 L 244 190 L 264 200 L 244 210 L 249 205 L 214 205 L 214 195 Z" />
    <path
      d="M 357 195 L 392 195 L 387 190 L 407 200 L 387 210 L 392 205 L 357 205 L 357 195 Z" />
    <path style="fill: rgb(216, 216, 216); stroke: rgb(0, 0, 0);"
      d="M420 166 l7 15 h-12 v30 h50 l-7 15 h22 l-7 -15 h12v-30h-50l7-15 Z" />
  </g>
  <g style="fill: rgb(100, 100, 100); stroke: rgb(50, 50, 50);">
    <path
      d="M 71 118 L 71 112 L 93 112 L 93 118 L 71 118 Z M 71 106 L 71 99 L 105 99 L 105 106 L 71 106 Z M 71 93 L 71 87 L 105 87 L 105 93 L 71 93 Z M 99 137 L 99 128 L 117 110.724 C 117 110.249 118 109 118 109 C 119 109 119 109 120.354 109 C 120.986 109 121 109 122 109 C 122 109 123 110.329 123 110.804 L 126 113 C 127 114 127 114 127 115 C 127 115 128 116 128 117 C 128 117 127 118 127 118 C 127 119 127 119 126 120.461 L 109 137 L 99 137 Z M 123 117 L 120.354 114 L 123 117 Z M 104 133 L 107 133 L 116 123 L 115 121 L 113 120.539 L 104 130.116 L 104 133 Z M 115 121 L 113 120.539 L 116 123 L 115 121 Z"
      style="transform-box: fill-box; transform-origin: 50% 50%;" />
    <path
      d="M 231 297 L 230.276 287 C 229 287 229 287 228 287 C 227 286 227 286 226 286 L 218 289 L 210.576 276 L 217 270.496 C 217 270.163 217 269 217 269 L 217 267 C 217 267 217 266 217 266 L 210.576 261 L 218 247 L 226 251 C 227 250.701 227 250.344 228 250.011 C 229 249 229 249 230.276 249 L 231 240.018 L 247 240.018 L 248 249 C 248 249 249 249 250.012 250.011 C 250.559 250.344 251 250.701 251 251 L 260.112 247 L 267 261 L 260.612 266 C 260.659 266 260.683 267 260.683 267 L 260.683 269 C 260.683 269 260.635 270.163 260.54 270.496 L 267 276 L 260.041 289 L 251 286 C 251 286 250.547 286 249 287 C 249 287 248 287 248 287 L 247 297 L 231 297 Z M 236 291 L 242 291 L 243 283 C 244 283 245 282 247 282 C 248 281 249 280.537 250.619 279 L 257 282 L 260.469 277 L 254 272 C 254 272 254 271 254 270.817 C 254 270.08 254 269 254 268 C 254 267 254 267 254 266 C 254 265 254 264 254 264 L 260.469 259 L 257 254 L 250.619 257 C 249 256 248 255 247 254 C 245 254 244 253 243 253 L 242 245 L 236 245 L 235 253 C 234 253 232 254 231 254 C 230.121 255 228 256 227 257 L 220.854 254 L 218 259 L 224 264 C 223 264 223 265 223 266 C 223 266 223 267 223 268 C 223 269 223 270.068 223 270.782 C 223 271 223 272 224 272 L 218 277 L 220.854 282 L 227 279 C 228 280.513 230.121 281 231 282 C 232 282 234 283 235 283 L 236 291 Z M 239 278 C 242 278 244 277 246 275 C 248 273 249 271 249 268 C 249 265 248 263 246 261 C 244 259 242 258 239 258 C 236 258 234 259 232 261 C 230.383 263 229 265 229 268 C 229 271 230.383 273 232 275 C 234 277 236 278 239 278 Z M 239 268 Z" />
    <path
      d="M 367 147 C 365 147 364 146 363 145 C 361 144 361 143 361 141 L 361 105 C 361 104 361 102 363 101 C 364 100.582 365 100 367 100 L 414 100 C 416 100 417 100.582 418 101 C 420.071 102 420.653 104 420.653 105 L 420.653 141 C 420.653 143 420.071 144 418 145 C 417 146 416 147 414 147 L 367 147 Z M 367 141 L 414 141 L 414 111 L 367 111 L 367 141 Z M 377 138 L 373 134 L 381 126 L 373 119 L 377 114 L 389 126 L 377 138 Z M 390.964 138 L 390.964 132 L 408 132 L 408 138 L 390.964 138 Z"
      style="" />
  </g>
  <g style="white-space: pre; fill: rgb(51, 51, 51); font-family: Arial, sans-serif; font-size: 15.3px;"
    transform="matrix(1, 0, 0, 1, 15, 21)">
    <text x="0.868" y="143">생각</text>
    <text x="104" y="78">에디터</text>
    <text x="54" y="208">코딩</text>
    <text x="110" y="160">str = "HELLO"<tspan x="110" dy="1em">​</tspan>print("... </text>
    <text x="130" y="205">코드</text>
    <text x="253" y="277">컴파일러</text>
    <text x="263" y="150" style="white-space: pre;">0100101
      <tspan x="263" dy="1em">​</tspan>1011010
      <tspan x="263" dy="1em">​</tspan>1011010
    </text>
    <text x="263" y="205">바이너리</text>
    <text x="345" y="70">프롬프트</text>
    <text x="418" y="235">실행</text>
  </g>
</svg>